<?xml version="1.0" encoding="UTF-8"?> <svg xmlns="http://www.w3.org/2000/svg" width="236" height="58" viewBox="0 0 236 58" fill="none"><path d="M39.7787 17.8445L25.4537 9.51409C25.4007 9.47849 25.3389 9.46069 25.2683 9.46069C25.2241 9.46069 25.1623 9.46959 25.0916 9.50519L10.7578 17.8445L25.2594 26.2817L39.7787 17.8445Z" fill="#FAFAFA"></path><path d="M27.2363 29.717V46.6003L41.5613 38.261C41.6143 38.2343 41.6585 38.1898 41.685 38.1453C41.685 38.1364 41.6938 38.1275 41.6938 38.1186C41.7203 38.0652 41.7379 38.0118 41.7379 37.9495V21.2798L27.2363 29.717Z" fill="#FAFAFA"></path><path d="M8.79688 21.2798V37.9495C8.79688 38.0296 8.82337 38.0919 8.84987 38.1364C8.86753 38.172 8.91169 38.2254 8.97351 38.261L23.2985 46.5914V29.717L18.4587 26.8957L8.79688 21.2798Z" fill="#FAFAFA"></path><path d="M49.846 14.3379C49.8371 14.329 49.8372 14.3112 49.8283 14.3023C49.8283 14.2934 49.8195 14.2934 49.8195 14.2845C49.8195 14.2845 49.8195 14.2845 49.8195 14.2756L49.8107 14.2667C49.3514 13.4746 48.689 12.8071 47.8854 12.3265L27.9258 0.7209C27.1132 0.2492 26.1948 0 25.2674 0C24.3313 0 23.4128 0.2492 22.6179 0.7209L2.6495 12.3265C1.84582 12.7982 1.18344 13.4657 0.715366 14.2756V14.2845C0.715366 14.2845 0.715366 14.2934 0.706534 14.2934C0.247287 15.1122 0 16.0289 0 16.9634V40.1835C0 41.1091 0.247287 42.0347 0.715366 42.8624C1.18344 43.6812 1.85465 44.3576 2.65833 44.8204L22.6179 56.426C23.4216 56.8977 24.3401 57.1469 25.2763 57.1469C26.2036 57.1469 27.1221 56.8977 27.9346 56.426L47.8942 44.8115C48.7067 44.3398 49.3779 43.6634 49.8372 42.8446C50.3052 42.0347 50.5525 41.1091 50.5525 40.1746V16.9634C50.5349 16.0378 50.2964 15.13 49.846 14.3379ZM45.6686 37.9496C45.6686 38.7061 45.4655 39.4537 45.0945 40.1034C44.7236 40.762 44.1849 41.3049 43.5225 41.6876L27.4135 51.0682C26.76 51.4509 26.0181 51.6467 25.2674 51.6467C24.5167 51.6467 23.7749 51.442 23.1213 51.0682L7.01235 41.6965C6.36764 41.3227 5.82007 40.7709 5.44031 40.1123C5.06055 39.4448 4.86625 38.7061 4.86625 37.9496V19.1973C4.86625 18.4497 5.06055 17.7021 5.44031 17.0435C5.44031 17.0435 5.44031 17.0435 5.44031 17.0346C5.44031 17.0346 5.44031 17.0346 5.44031 17.0257C5.82007 16.376 6.35881 15.8331 7.00352 15.4504L23.1213 6.0876C23.766 5.7049 24.5079 5.5091 25.2674 5.5091C26.0181 5.5091 26.76 5.7049 27.4135 6.0876L43.5225 15.4593C44.176 15.842 44.7148 16.3849 45.0769 17.0257C45.0769 17.0257 45.0769 17.0346 45.0857 17.0346C45.0857 17.0435 45.0945 17.0435 45.0945 17.0524C45.1034 17.0613 45.1034 17.0702 45.1122 17.0791C45.4743 17.7288 45.6686 18.4586 45.6686 19.1973V37.9496Z" fill="#FAFAFA"></path><path d="M45.0857 17.0357C45.0857 17.0253 45.0857 17.0253 45.0857 17.0357Z" fill="#FAFAFA"></path><path d="M45.0945 17.0524C45.0945 17.0435 45.0857 17.0435 45.0857 17.0346C45.0945 17.0523 45.1034 17.0614 45.1122 17.0791C45.1034 17.0702 45.1034 17.0613 45.0945 17.0524Z" fill="#FAFAFA"></path><path d="M88.6569 20.0891C86.0354 20.0891 83.4728 20.867 81.2931 22.3243C79.1134 23.7816 77.4145 25.853 76.4113 28.2765C75.4081 30.7 75.1456 33.3667 75.657 35.9394C76.1685 38.5122 77.4308 40.8754 79.2845 42.7302C81.1382 44.5851 83.4999 45.8482 86.0711 46.36C88.6422 46.8717 91.3073 46.6091 93.7292 45.6052C96.1512 44.6014 98.2213 42.9015 99.6777 40.7204C101.134 38.5393 101.911 35.9751 101.911 33.352C101.907 29.8358 100.509 26.4648 98.0245 23.9785C95.5397 21.4922 92.1709 20.0935 88.6569 20.0891ZM88.6569 41.1449C87.1166 41.1449 85.6108 40.6879 84.3301 39.8316C83.0493 38.9753 82.0511 37.7582 81.4617 36.3342C80.8722 34.9102 80.718 33.3433 81.0185 31.8316C81.319 30.3199 82.0607 28.9314 83.1499 27.8415C84.2391 26.7516 85.6268 26.0094 87.1375 25.7087C88.6483 25.4081 90.2142 25.5624 91.6373 26.1522C93.0604 26.742 94.2767 27.7409 95.1325 29.0224C95.9882 30.304 96.445 31.8107 96.445 33.352C96.4428 35.4181 95.6216 37.399 94.1615 38.86C92.7014 40.321 90.7218 41.1427 88.6569 41.1449Z" fill="#FAFAFA"></path><path d="M117.257 20.0891C114.635 20.0891 112.072 20.867 109.893 22.3243C107.713 23.7816 106.014 25.853 105.011 28.2765C104.008 30.7 103.745 33.3667 104.257 35.9394C104.768 38.5122 106.03 40.8754 107.884 42.7302C109.738 44.5851 112.1 45.8482 114.671 46.36C117.242 46.8717 119.907 46.6091 122.329 45.6052C124.751 44.6014 126.821 42.9015 128.277 40.7204C129.734 38.5393 130.511 35.9751 130.511 33.352C130.507 29.8358 129.109 26.4648 126.624 23.9785C124.139 21.4922 120.771 20.0935 117.257 20.0891ZM117.257 41.1449C115.716 41.1449 114.21 40.6879 112.93 39.8316C111.649 38.9753 110.651 37.7582 110.061 36.3342C109.472 34.9102 109.318 33.3433 109.618 31.8316C109.919 30.3199 110.66 28.9314 111.75 27.8415C112.839 26.7516 114.226 26.0094 115.737 25.7087C117.248 25.4081 118.814 25.5624 120.237 26.1522C121.66 26.742 122.876 27.7409 123.732 29.0224C124.588 30.304 125.045 31.8107 125.045 33.352C125.042 35.4181 124.221 37.399 122.761 38.86C121.301 40.321 119.321 41.1427 117.257 41.1449Z" fill="#FAFAFA"></path><path d="M184.114 20.0891C181.492 20.0891 178.93 20.867 176.75 22.3243C174.57 23.7816 172.872 25.853 171.868 28.2765C170.865 30.7 170.603 33.3667 171.114 35.9394C171.625 38.5122 172.888 40.8754 174.742 42.7302C176.595 44.5851 178.957 45.8482 181.528 46.36C184.099 46.8717 186.764 46.6091 189.186 45.6052C191.608 44.6014 193.678 42.9015 195.135 40.7204C196.591 38.5393 197.368 35.9751 197.368 33.352C197.364 29.8358 195.966 26.4648 193.482 23.9785C190.997 21.4922 187.628 20.0935 184.114 20.0891ZM184.114 41.1449C182.574 41.1449 181.068 40.6879 179.787 39.8316C178.506 38.9753 177.508 37.7582 176.919 36.3342C176.329 34.9102 176.175 33.3433 176.475 31.8316C176.776 30.3199 177.518 28.9314 178.607 27.8415C179.696 26.7516 181.084 26.0094 182.595 25.7087C184.105 25.4081 185.671 25.5624 187.094 26.1522C188.517 26.742 189.734 27.7409 190.59 29.0224C191.445 30.304 191.902 31.8107 191.902 33.352C191.9 35.4181 191.079 37.399 189.619 38.86C188.158 40.321 186.179 41.1427 184.114 41.1449Z" fill="#FAFAFA"></path><path d="M75.7395 22.7665C76.1105 22.7869 76.4818 22.7314 76.8306 22.6034C77.1795 22.4753 77.4986 22.2775 77.7684 22.0219C78.0382 21.7663 78.2532 21.4584 78.4001 21.1169C78.5469 20.7753 78.6227 20.4075 78.6227 20.0357C78.6227 19.6639 78.5469 19.296 78.4001 18.9545C78.2532 18.613 78.0382 18.305 77.7684 18.0494C77.4986 17.7938 77.1795 17.596 76.8306 17.468C76.4818 17.3399 76.1105 17.2844 75.7395 17.3048H70.9152V10.764C70.9152 10.0387 70.6272 9.34302 70.1146 8.83012C69.602 8.31722 68.9068 8.02908 68.1819 8.02908C67.457 8.02908 66.7618 8.31722 66.2492 8.83012C65.7367 9.34302 65.4487 10.0387 65.4487 10.764V17.3048H61.4476C61.0766 17.2844 60.7054 17.3399 60.3565 17.468C60.0077 17.596 59.6886 17.7938 59.4188 18.0494C59.1489 18.305 58.934 18.613 58.7871 18.9545C58.6402 19.296 58.5645 19.6639 58.5645 20.0357C58.5645 20.4075 58.6402 20.7753 58.7871 21.1169C58.934 21.4584 59.1489 21.7663 59.4188 22.0219C59.6886 22.2775 60.0077 22.4753 60.3565 22.6034C60.7054 22.7314 61.0766 22.7869 61.4476 22.7665H65.4734V43.8717C65.4734 44.5971 65.7614 45.2927 66.274 45.8056C66.7865 46.3185 67.4817 46.6067 68.2066 46.6067C68.9315 46.6067 69.6267 46.3185 70.1393 45.8056C70.6519 45.2927 70.9399 44.5971 70.9399 43.8717V22.7665H75.7395Z" fill="#FAFAFA"></path><path d="M136.167 8.02883C135.808 8.02774 135.452 8.09774 135.12 8.2348C134.788 8.37186 134.486 8.57328 134.232 8.82746C133.978 9.08164 133.777 9.38357 133.64 9.71588C133.503 10.0482 133.433 10.4043 133.434 10.7638V43.8715C133.414 44.2427 133.469 44.6142 133.597 44.9633C133.725 45.3123 133.923 45.6316 134.178 45.9016C134.434 46.1716 134.741 46.3867 135.083 46.5337C135.424 46.6807 135.792 46.7565 136.163 46.7565C136.535 46.7565 136.902 46.6807 137.244 46.5337C137.585 46.3867 137.893 46.1716 138.148 45.9016C138.404 45.6316 138.601 45.3123 138.729 44.9633C138.857 44.6142 138.913 44.2427 138.892 43.8715V10.7638C138.893 10.405 138.824 10.0496 138.687 9.71778C138.551 9.38601 138.35 9.08445 138.097 8.83038C137.844 8.57631 137.543 8.37472 137.212 8.23718C136.881 8.09963 136.526 8.02883 136.167 8.02883Z" fill="#FAFAFA"></path><path d="M155.719 20.0889C152.922 20.0868 150.197 20.9755 147.939 22.6262V10.7638C147.939 10.0384 147.651 9.34276 147.139 8.82986C146.626 8.31695 145.931 8.02881 145.206 8.02881C144.481 8.02881 143.786 8.31695 143.273 8.82986C142.761 9.34276 142.473 10.0384 142.473 10.7638V33.3518C142.473 35.9753 143.25 38.5398 144.707 40.7211C146.164 42.9023 148.234 44.6023 150.657 45.6059C153.079 46.6094 155.745 46.8716 158.316 46.3592C160.887 45.8468 163.249 44.5828 165.103 42.7271C166.956 40.8715 168.218 38.5075 168.728 35.9342C169.239 33.3609 168.975 30.6939 167.97 28.2706C166.966 25.8473 165.266 23.7765 163.085 22.3201C160.904 20.8638 158.341 20.0873 155.719 20.0889ZM155.719 41.1447C154.179 41.1431 152.674 40.6847 151.394 39.8274C150.115 38.9701 149.118 37.7524 148.53 36.3283C147.941 34.9042 147.788 33.3376 148.09 31.8264C148.391 30.3153 149.134 28.9275 150.223 27.8384C151.313 26.7494 152.7 26.008 154.211 25.708C155.721 25.408 157.287 25.5628 158.71 26.1528C160.132 26.7429 161.348 27.7418 162.203 29.0231C163.059 30.3045 163.515 31.8108 163.515 33.3518C163.513 35.4194 162.691 37.4015 161.229 38.8627C159.767 40.324 157.785 41.1447 155.719 41.1447Z" fill="#FAFAFA"></path><path d="M223.54 42.0508L215.151 33.64L223.54 25.2375C224.045 24.7225 224.326 24.029 224.322 23.3079C224.318 22.5868 224.029 21.8964 223.519 21.387C223.009 20.8776 222.318 20.5905 221.598 20.588C220.877 20.5856 220.185 20.8681 219.671 21.374L211.274 29.7765L202.868 21.374C202.348 20.9007 201.667 20.6459 200.964 20.6624C200.262 20.679 199.593 20.9656 199.096 21.4627C198.599 21.9599 198.312 22.6294 198.296 23.3323C198.279 24.0352 198.534 24.7175 199.007 25.2375L207.404 33.64L199.007 42.0508C198.534 42.5708 198.279 43.2531 198.296 43.956C198.312 44.6589 198.599 45.3284 199.096 45.8256C199.593 46.3228 200.262 46.6093 200.964 46.6259C201.667 46.6424 202.348 46.3876 202.868 45.9143L211.274 37.5118L219.671 45.9143C220.185 46.4203 220.877 46.7027 221.598 46.7003C222.318 46.6978 223.009 46.4107 223.519 45.9013C224.029 45.3919 224.318 44.7016 224.322 43.9804C224.326 43.2593 224.045 42.5658 223.54 42.0508Z" fill="#FAFAFA"></path><path d="M235.478 23.7056C235.501 24.5367 235.275 25.3556 234.83 26.0572C234.384 26.7587 233.738 27.3109 232.977 27.6427C232.215 27.9745 231.371 28.0707 230.554 27.9191C229.738 27.7675 228.985 27.3749 228.392 26.7918C227.8 26.2087 227.396 25.4617 227.231 24.6469C227.066 23.832 227.149 22.9865 227.468 22.219C227.788 21.4514 228.329 20.797 229.023 20.3397C229.717 19.8824 230.531 19.6431 231.362 19.6526C231.899 19.6461 232.432 19.746 232.93 19.9466C233.428 20.1471 233.881 20.4444 234.264 20.8211C234.647 21.1979 234.951 21.6468 235.159 22.1419C235.368 22.637 235.476 23.1684 235.478 23.7056ZM228.192 23.7056C228.18 24.1275 228.253 24.5474 228.407 24.9404C228.561 25.3333 228.792 25.6912 229.087 25.9927C229.382 26.2941 229.735 26.533 230.124 26.6948C230.514 26.8567 230.932 26.9384 231.354 26.9349C232.183 26.893 232.964 26.5341 233.535 25.9323C234.107 25.3305 234.426 24.5319 234.426 23.7015C234.426 22.8712 234.107 22.0725 233.535 21.4708C232.964 20.869 232.183 20.5101 231.354 20.4682C230.932 20.4658 230.513 20.5485 230.124 20.7113C229.734 20.874 229.382 21.1136 229.087 21.4157C228.792 21.7178 228.56 22.0763 228.407 22.4697C228.253 22.8631 228.18 23.2834 228.192 23.7056ZM230.662 25.831H229.724V21.7862C230.237 21.6922 230.758 21.648 231.28 21.6544C231.767 21.6189 232.255 21.7217 232.687 21.951C232.816 22.06 232.918 22.1966 232.987 22.3506C233.055 22.5047 233.088 22.6722 233.083 22.8407C233.066 23.0654 232.976 23.2786 232.828 23.448C232.679 23.6174 232.48 23.7339 232.259 23.7798V23.8292C232.461 23.9107 232.637 24.0459 232.767 24.2202C232.898 24.3944 232.979 24.601 233 24.8177C233.04 25.17 233.141 25.5127 233.297 25.831H232.284C232.128 25.5195 232.02 25.1862 231.963 24.8425C231.889 24.3976 231.642 24.1999 231.14 24.1999H230.695L230.662 25.831ZM230.662 23.5326H231.107C231.625 23.5326 232.045 23.3597 232.045 22.9395C232.045 22.5194 231.774 22.3217 231.181 22.3217C231.007 22.318 230.833 22.3346 230.662 22.3711V23.5326Z" fill="#FAFAFA"></path></svg> 